<svg height="512pt" viewBox="0 -20 512 512" width="512pt" xmlns="http://www.w3.org/2000/svg"><path d="m293.082031 462.011719v-77.828125c0-39.714844 32.199219-71.910156 71.914063-71.910156h65.089844c39.71875 0 71.914062 32.195312 71.914062 71.910156v77.828125zm0 0" fill="#91def5"/><path d="m10 462.011719v-77.828125c0-39.714844 32.195312-71.910156 71.914062-71.910156h65.089844c39.714844 0 71.914063 32.195312 71.914063 71.910156v77.828125zm0 0" fill="#f6838d"/><path d="m443.769531 234.648438v31.410156c0 25.523437-20.691406 46.210937-46.210937 46.210937-25.523438 0-46.214844-20.6875-46.214844-46.210937v-31.410156zm0 0" fill="#ffddcf"/><path d="m397.558594 177.308594c25.519531 0 46.210937 20.691406 46.210937 46.214844v22.503906h-22.59375c-15.019531 0-29.269531-6.648438-38.917969-18.160156l-30.914062 18.160156v-22.503906c0-25.523438 20.691406-46.214844 46.214844-46.214844zm0 0" fill="#8690a6"/><path d="m160.671875 223.523438v42.535156c0 25.523437-20.691406 46.214844-46.210937 46.214844-25.523438 0-46.214844-20.691407-46.214844-46.214844v-42.535156c0-25.523438 20.691406-46.210938 46.214844-46.210938 25.519531-.003906 46.210937 20.6875 46.210937 46.210938zm0 0" fill="#ffcb7c"/><path d="m502 462.011719h-283.082031v-48h283.082031zm0 0" fill="#ffd89e"/><path d="m276.007812 10h132.003907c11.046875 0 20 8.953125 20 20v88.003906c0 11.046875-8.953125 20-20 20h-77.335938v25.5l-33.667969-25.5h-21c-11.046874 0-20-8.953125-20-20v-88.003906c0-11.046875 8.953126-20 20-20zm0 0" fill="#ffcb7c"/><path d="m30.253906 10h113.773438c11.046875 0 20.003906 8.953125 20.003906 20v88.003906c0 11.046875-8.957031 20-20.003906 20h-52.023438v25.5l-33.667968-25.5h-28.082032c-11.046875 0-20-8.953125-20-20v-88.003906c0-11.046875 8.953125-20 20-20zm0 0" fill="#cbe558"/><path d="m439.96875 302.890625c8.585938-9.875 13.800781-22.75 13.800781-36.832031v-42.535156c0-30.996094-25.21875-56.210938-56.210937-56.210938-30.996094 0-56.214844 25.214844-56.214844 56.210938v42.535156c0 14.078125 5.214844 26.953125 13.796875 36.828125-40.535156 4.886719-72.058594 39.46875-72.058594 81.296875v19.828125h-54.164062v-19.828125c0-41.824219-31.519531-76.40625-72.046875-81.296875 8.585937-9.871094 13.800781-22.746094 13.800781-36.828125v-42.535156c0-30.996094-25.21875-56.210938-56.214844-56.210938-4.90625 0-9.671875.636719-14.214843 1.824219 1.117187-1.632813 1.761718-3.578125 1.761718-5.632813v-15.5h42.023438c16.542968 0 30-13.457031 30-30v-88.003906c0-16.539062-13.457032-30-30-30h-113.773438c-16.542968 0-30 13.460938-30 30v88.003906c0 16.542969 13.457032 30 30 30h24.722656l30.988282 23.472656c1.070312.8125 2.273437 1.378907 3.527344 1.703126-18.5 9.214843-31.246094 28.3125-31.246094 50.34375v42.539062c0 14.078125 5.214844 26.953125 13.796875 36.828125-40.527344 4.886719-72.042969 39.46875-72.042969 81.292969v77.828125c0 5.523437 4.476562 10.003906 10 10.003906h310.457031c5.523438 0 10-4.480469 10-10.003906 0-5.519531-4.476562-10-10-10h-91.539062v-28h263.082031v28h-91.539062c-5.523438 0-10 4.480469-10 10 0 5.523437 4.476562 10.003906 10 10.003906h101.539062c5.523438 0 10-4.480469 10-10.003906v-77.828125c0-41.820313-31.507812-76.398438-72.03125-81.292969zm-357.964844-164.886719v5.382813l-17.628906-13.355469c-1.738281-1.316406-3.859375-2.027344-6.039062-2.027344h-28.082032c-5.515625 0-10-4.484375-10-10v-88.003906c0-5.511719 4.484375-10 10-10h113.773438c5.515625 0 10.003906 4.488281 10.003906 10v88.003906c0 5.515625-4.488281 10-10.003906 10h-52.023438c-5.523437 0-10 4.476563-10 10zm-3.757812 85.519532c0-19.96875 16.246094-36.214844 36.210937-36.214844 19.96875 0 36.214844 16.246094 36.214844 36.214844v42.535156c0 19.96875-16.246094 36.210937-36.214844 36.210937-19.964843 0-36.210937-16.242187-36.210937-36.210937zm-58.246094 160.660156c0-34.136719 27.773438-61.910156 61.914062-61.910156h65.089844c34.140625 0 61.914063 27.773437 61.914063 61.910156v67.828125h-188.917969zm341.34375-118.125v-14.304688l19.210938-11.285156c11.082031 9.972656 25.480468 15.5625 40.621093 15.5625h12.59375v10.027344c0 19.96875-16.246093 36.210937-36.210937 36.210937-19.96875 0-36.214844-16.242187-36.214844-36.210937zm0-42.535156c0-19.96875 16.246094-36.214844 36.214844-36.214844 19.964844 0 36.210937 16.246094 36.210937 36.214844v12.503906h-12.59375c-12.097656 0-23.484375-5.3125-31.253906-14.582032-1.957031-2.339843-4.789063-3.578124-7.667969-3.578124-1.730468 0-3.480468.445312-5.0625 1.378906l-15.847656 9.308594zm-58.261719 180.488281v-19.828125c0-34.136719 27.773438-61.910156 61.914063-61.910156h22.558594v44.960937c0 5.523437 4.480468 10 10.003906 10 5.519531 0 10-4.476563 10-10v-44.960937h22.527344c34.140624 0 61.914062 27.773437 61.914062 61.910156v19.828125zm0 0"/><path d="m276.007812 148.003906h17.640626l30.988281 23.472656c1.773437 1.34375 3.898437 2.027344 6.039062 2.027344 1.519531 0 3.039063-.34375 4.449219-1.042968 3.402344-1.691407 5.550781-5.160157 5.550781-8.957032v-15.5h67.335938c16.542969 0 30-13.457031 30-30v-88.003906c0-16.542969-13.457031-30-30-30h-132.003907c-16.542968 0-30 13.457031-30 30v88.003906c0 16.542969 13.457032 30 30 30zm-10-118.003906c0-5.511719 4.484376-10 10-10h132.003907c5.515625 0 10 4.488281 10 10v88.003906c0 5.515625-4.484375 10-10 10h-77.335938c-5.523437 0-10 4.476563-10 10v5.382813l-17.628906-13.355469c-1.738281-1.316406-3.859375-2.027344-6.039063-2.027344h-21c-5.515624 0-10-4.484375-10-10zm0 0"/><path d="m301.507812 85.171875c2.632813 0 5.210938-1.070313 7.070313-2.929687 1.859375-1.859376 2.929687-4.441407 2.929687-7.070313 0-2.640625-1.070312-5.210937-2.929687-7.070313-1.859375-1.871093-4.4375-2.929687-7.070313-2.929687-2.628906 0-5.210937 1.070313-7.070312 2.929687-1.859375 1.859376-2.929688 4.429688-2.929688 7.070313 0 2.628906 1.070313 5.210937 2.929688 7.070313 1.859375 1.859374 4.441406 2.929687 7.070312 2.929687zm0 0"/><path d="m342.011719 85.171875c2.628906 0 5.207031-1.070313 7.066406-2.929687 1.859375-1.859376 2.933594-4.441407 2.933594-7.070313 0-2.640625-1.070313-5.210937-2.933594-7.070313-1.859375-1.871093-4.4375-2.929687-7.066406-2.929687-2.632813 0-5.210938 1.070313-7.070313 2.929687-1.863281 1.859376-2.933594 4.429688-2.933594 7.070313 0 2.628906 1.070313 5.210937 2.933594 7.070313 1.859375 1.859374 4.4375 2.929687 7.070313 2.929687zm0 0"/><path d="m382.511719 85.171875c2.628906 0 5.210937-1.070313 7.070312-2.929687 1.859375-1.859376 2.929688-4.441407 2.929688-7.070313 0-2.640625-1.070313-5.210937-2.929688-7.070313-1.859375-1.871093-4.441406-2.929687-7.070312-2.929687-2.628907 0-5.210938 1.058594-7.070313 2.929687-1.859375 1.859376-2.929687 4.441407-2.929687 7.070313s1.066406 5.210937 2.929687 7.070313c1.859375 1.859374 4.441406 2.929687 7.070313 2.929687zm0 0"/><path d="m122.851562 47.542969c-3.90625-3.902344-10.234374-3.902344-14.144531 0l-29.410156 29.414062-13.722656-13.722656c-3.90625-3.90625-10.234375-3.90625-14.144531 0-3.902344 3.90625-3.902344 10.238281 0 14.144531l20.792968 20.789063c1.953125 1.953125 4.511719 2.929687 7.074219 2.929687 2.558594 0 5.117187-.976562 7.070313-2.929687l36.480468-36.480469c3.910156-3.90625 3.910156-10.238281.003906-14.144531zm0 0"/><path d="m360.460938 452.011719c-2.632813 0-5.210938 1.070312-7.070313 2.929687-1.859375 1.863282-2.929687 4.441406-2.929687 7.070313 0 2.632812 1.070312 5.210937 2.929687 7.070312s4.4375 2.933594 7.070313 2.933594c2.628906 0 5.210937-1.070313 7.070312-2.933594 1.859375-1.859375 2.929688-4.4375 2.929688-7.070312 0-2.628907-1.070313-5.207031-2.929688-7.070313-1.859375-1.859375-4.441406-2.929687-7.070312-2.929687zm0 0"/></svg>